<?xml version="1.0" encoding="UTF-8" standalone="no"?>
<svg width="161px" height="161px" viewBox="0 0 161 161" version="1.1" xmlns="http://www.w3.org/2000/svg" xmlns:xlink="http://www.w3.org/1999/xlink">
    <!-- Generator: sketchtool 50.2 (55047) - http://www.bohemiancoding.com/sketch -->
    <title>54D5B432-0CE5-481F-9F16-927EA3A58B42</title>
    <desc>Created with sketchtool.</desc>
    <defs></defs>
    <g id="Page-1" stroke="none" stroke-width="1" fill="none" fill-rule="evenodd" opacity="0.5">
        <g id="01---SignUp" transform="translate(-652.000000, -208.000000)" fill="#FFFFFF">
            <g id="02">
                <path d="M654,212 C652.895431,212 652,211.104569 652,210 C652,208.895431 652.895431,208 654,208 C655.104569,208 656,208.895431 656,210 C656,211.104569 655.104569,212 654,212 Z M671,212 C669.895431,212 669,211.104569 669,210 C669,208.895431 669.895431,208 671,208 C672.104569,208 673,208.895431 673,210 C673,211.104569 672.104569,212 671,212 Z M689,212 C687.895431,212 687,211.104569 687,210 C687,208.895431 687.895431,208 689,208 C690.104569,208 691,208.895431 691,210 C691,211.104569 690.104569,212 689,212 Z M706,212 C704.895431,212 704,211.104569 704,210 C704,208.895431 704.895431,208 706,208 C707.104569,208 708,208.895431 708,210 C708,211.104569 707.104569,212 706,212 Z M724,212 C722.895431,212 722,211.104569 722,210 C722,208.895431 722.895431,208 724,208 C725.104569,208 726,208.895431 726,210 C726,211.104569 725.104569,212 724,212 Z M741,212 C739.895431,212 739,211.104569 739,210 C739,208.895431 739.895431,208 741,208 C742.104569,208 743,208.895431 743,210 C743,211.104569 742.104569,212 741,212 Z M759,212 C757.895431,212 757,211.104569 757,210 C757,208.895431 757.895431,208 759,208 C760.104569,208 761,208.895431 761,210 C761,211.104569 760.104569,212 759,212 Z M776,212 C774.895431,212 774,211.104569 774,210 C774,208.895431 774.895431,208 776,208 C777.104569,208 778,208.895431 778,210 C778,211.104569 777.104569,212 776,212 Z M794,212 C792.895431,212 792,211.104569 792,210 C792,208.895431 792.895431,208 794,208 C795.104569,208 796,208.895431 796,210 C796,211.104569 795.104569,212 794,212 Z M811,212 C809.895431,212 809,211.104569 809,210 C809,208.895431 809.895431,208 811,208 C812.104569,208 813,208.895431 813,210 C813,211.104569 812.104569,212 811,212 Z M654,229 C652.895431,229 652,228.104569 652,227 C652,225.895431 652.895431,225 654,225 C655.104569,225 656,225.895431 656,227 C656,228.104569 655.104569,229 654,229 Z M671,229 C669.895431,229 669,228.104569 669,227 C669,225.895431 669.895431,225 671,225 C672.104569,225 673,225.895431 673,227 C673,228.104569 672.104569,229 671,229 Z M689,229 C687.895431,229 687,228.104569 687,227 C687,225.895431 687.895431,225 689,225 C690.104569,225 691,225.895431 691,227 C691,228.104569 690.104569,229 689,229 Z M706,229 C704.895431,229 704,228.104569 704,227 C704,225.895431 704.895431,225 706,225 C707.104569,225 708,225.895431 708,227 C708,228.104569 707.104569,229 706,229 Z M724,229 C722.895431,229 722,228.104569 722,227 C722,225.895431 722.895431,225 724,225 C725.104569,225 726,225.895431 726,227 C726,228.104569 725.104569,229 724,229 Z M741,229 C739.895431,229 739,228.104569 739,227 C739,225.895431 739.895431,225 741,225 C742.104569,225 743,225.895431 743,227 C743,228.104569 742.104569,229 741,229 Z M759,229 C757.895431,229 757,228.104569 757,227 C757,225.895431 757.895431,225 759,225 C760.104569,225 761,225.895431 761,227 C761,228.104569 760.104569,229 759,229 Z M776,229 C774.895431,229 774,228.104569 774,227 C774,225.895431 774.895431,225 776,225 C777.104569,225 778,225.895431 778,227 C778,228.104569 777.104569,229 776,229 Z M794,229 C792.895431,229 792,228.104569 792,227 C792,225.895431 792.895431,225 794,225 C795.104569,225 796,225.895431 796,227 C796,228.104569 795.104569,229 794,229 Z M811,229 C809.895431,229 809,228.104569 809,227 C809,225.895431 809.895431,225 811,225 C812.104569,225 813,225.895431 813,227 C813,228.104569 812.104569,229 811,229 Z M654,247 C652.895431,247 652,246.104569 652,245 C652,243.895431 652.895431,243 654,243 C655.104569,243 656,243.895431 656,245 C656,246.104569 655.104569,247 654,247 Z M671,247 C669.895431,247 669,246.104569 669,245 C669,243.895431 669.895431,243 671,243 C672.104569,243 673,243.895431 673,245 C673,246.104569 672.104569,247 671,247 Z M689,247 C687.895431,247 687,246.104569 687,245 C687,243.895431 687.895431,243 689,243 C690.104569,243 691,243.895431 691,245 C691,246.104569 690.104569,247 689,247 Z M706,247 C704.895431,247 704,246.104569 704,245 C704,243.895431 704.895431,243 706,243 C707.104569,243 708,243.895431 708,245 C708,246.104569 707.104569,247 706,247 Z M724,247 C722.895431,247 722,246.104569 722,245 C722,243.895431 722.895431,243 724,243 C725.104569,243 726,243.895431 726,245 C726,246.104569 725.104569,247 724,247 Z M741,247 C739.895431,247 739,246.104569 739,245 C739,243.895431 739.895431,243 741,243 C742.104569,243 743,243.895431 743,245 C743,246.104569 742.104569,247 741,247 Z M759,247 C757.895431,247 757,246.104569 757,245 C757,243.895431 757.895431,243 759,243 C760.104569,243 761,243.895431 761,245 C761,246.104569 760.104569,247 759,247 Z M776,247 C774.895431,247 774,246.104569 774,245 C774,243.895431 774.895431,243 776,243 C777.104569,243 778,243.895431 778,245 C778,246.104569 777.104569,247 776,247 Z M794,247 C792.895431,247 792,246.104569 792,245 C792,243.895431 792.895431,243 794,243 C795.104569,243 796,243.895431 796,245 C796,246.104569 795.104569,247 794,247 Z M811,247 C809.895431,247 809,246.104569 809,245 C809,243.895431 809.895431,243 811,243 C812.104569,243 813,243.895431 813,245 C813,246.104569 812.104569,247 811,247 Z M654,264 C652.895431,264 652,263.104569 652,262 C652,260.895431 652.895431,260 654,260 C655.104569,260 656,260.895431 656,262 C656,263.104569 655.104569,264 654,264 Z M671,264 C669.895431,264 669,263.104569 669,262 C669,260.895431 669.895431,260 671,260 C672.104569,260 673,260.895431 673,262 C673,263.104569 672.104569,264 671,264 Z M689,264 C687.895431,264 687,263.104569 687,262 C687,260.895431 687.895431,260 689,260 C690.104569,260 691,260.895431 691,262 C691,263.104569 690.104569,264 689,264 Z M706,264 C704.895431,264 704,263.104569 704,262 C704,260.895431 704.895431,260 706,260 C707.104569,260 708,260.895431 708,262 C708,263.104569 707.104569,264 706,264 Z M724,264 C722.895431,264 722,263.104569 722,262 C722,260.895431 722.895431,260 724,260 C725.104569,260 726,260.895431 726,262 C726,263.104569 725.104569,264 724,264 Z M741,264 C739.895431,264 739,263.104569 739,262 C739,260.895431 739.895431,260 741,260 C742.104569,260 743,260.895431 743,262 C743,263.104569 742.104569,264 741,264 Z M759,264 C757.895431,264 757,263.104569 757,262 C757,260.895431 757.895431,260 759,260 C760.104569,260 761,260.895431 761,262 C761,263.104569 760.104569,264 759,264 Z M776,264 C774.895431,264 774,263.104569 774,262 C774,260.895431 774.895431,260 776,260 C777.104569,260 778,260.895431 778,262 C778,263.104569 777.104569,264 776,264 Z M794,264 C792.895431,264 792,263.104569 792,262 C792,260.895431 792.895431,260 794,260 C795.104569,260 796,260.895431 796,262 C796,263.104569 795.104569,264 794,264 Z M811,264 C809.895431,264 809,263.104569 809,262 C809,260.895431 809.895431,260 811,260 C812.104569,260 813,260.895431 813,262 C813,263.104569 812.104569,264 811,264 Z M654,282 C652.895431,282 652,281.104569 652,280 C652,278.895431 652.895431,278 654,278 C655.104569,278 656,278.895431 656,280 C656,281.104569 655.104569,282 654,282 Z M671,282 C669.895431,282 669,281.104569 669,280 C669,278.895431 669.895431,278 671,278 C672.104569,278 673,278.895431 673,280 C673,281.104569 672.104569,282 671,282 Z M689,282 C687.895431,282 687,281.104569 687,280 C687,278.895431 687.895431,278 689,278 C690.104569,278 691,278.895431 691,280 C691,281.104569 690.104569,282 689,282 Z M706,282 C704.895431,282 704,281.104569 704,280 C704,278.895431 704.895431,278 706,278 C707.104569,278 708,278.895431 708,280 C708,281.104569 707.104569,282 706,282 Z M724,282 C722.895431,282 722,281.104569 722,280 C722,278.895431 722.895431,278 724,278 C725.104569,278 726,278.895431 726,280 C726,281.104569 725.104569,282 724,282 Z M741,282 C739.895431,282 739,281.104569 739,280 C739,278.895431 739.895431,278 741,278 C742.104569,278 743,278.895431 743,280 C743,281.104569 742.104569,282 741,282 Z M759,282 C757.895431,282 757,281.104569 757,280 C757,278.895431 757.895431,278 759,278 C760.104569,278 761,278.895431 761,280 C761,281.104569 760.104569,282 759,282 Z M776,282 C774.895431,282 774,281.104569 774,280 C774,278.895431 774.895431,278 776,278 C777.104569,278 778,278.895431 778,280 C778,281.104569 777.104569,282 776,282 Z M794,282 C792.895431,282 792,281.104569 792,280 C792,278.895431 792.895431,278 794,278 C795.104569,278 796,278.895431 796,280 C796,281.104569 795.104569,282 794,282 Z M811,282 C809.895431,282 809,281.104569 809,280 C809,278.895431 809.895431,278 811,278 C812.104569,278 813,278.895431 813,280 C813,281.104569 812.104569,282 811,282 Z M654,299 C652.895431,299 652,298.104569 652,297 C652,295.895431 652.895431,295 654,295 C655.104569,295 656,295.895431 656,297 C656,298.104569 655.104569,299 654,299 Z M671,299 C669.895431,299 669,298.104569 669,297 C669,295.895431 669.895431,295 671,295 C672.104569,295 673,295.895431 673,297 C673,298.104569 672.104569,299 671,299 Z M689,299 C687.895431,299 687,298.104569 687,297 C687,295.895431 687.895431,295 689,295 C690.104569,295 691,295.895431 691,297 C691,298.104569 690.104569,299 689,299 Z M706,299 C704.895431,299 704,298.104569 704,297 C704,295.895431 704.895431,295 706,295 C707.104569,295 708,295.895431 708,297 C708,298.104569 707.104569,299 706,299 Z M724,299 C722.895431,299 722,298.104569 722,297 C722,295.895431 722.895431,295 724,295 C725.104569,295 726,295.895431 726,297 C726,298.104569 725.104569,299 724,299 Z M741,299 C739.895431,299 739,298.104569 739,297 C739,295.895431 739.895431,295 741,295 C742.104569,295 743,295.895431 743,297 C743,298.104569 742.104569,299 741,299 Z M759,299 C757.895431,299 757,298.104569 757,297 C757,295.895431 757.895431,295 759,295 C760.104569,295 761,295.895431 761,297 C761,298.104569 760.104569,299 759,299 Z M776,299 C774.895431,299 774,298.104569 774,297 C774,295.895431 774.895431,295 776,295 C777.104569,295 778,295.895431 778,297 C778,298.104569 777.104569,299 776,299 Z M794,299 C792.895431,299 792,298.104569 792,297 C792,295.895431 792.895431,295 794,295 C795.104569,295 796,295.895431 796,297 C796,298.104569 795.104569,299 794,299 Z M811,299 C809.895431,299 809,298.104569 809,297 C809,295.895431 809.895431,295 811,295 C812.104569,295 813,295.895431 813,297 C813,298.104569 812.104569,299 811,299 Z M654,317 C652.895431,317 652,316.104569 652,315 C652,313.895431 652.895431,313 654,313 C655.104569,313 656,313.895431 656,315 C656,316.104569 655.104569,317 654,317 Z M671,317 C669.895431,317 669,316.104569 669,315 C669,313.895431 669.895431,313 671,313 C672.104569,313 673,313.895431 673,315 C673,316.104569 672.104569,317 671,317 Z M689,317 C687.895431,317 687,316.104569 687,315 C687,313.895431 687.895431,313 689,313 C690.104569,313 691,313.895431 691,315 C691,316.104569 690.104569,317 689,317 Z M706,317 C704.895431,317 704,316.104569 704,315 C704,313.895431 704.895431,313 706,313 C707.104569,313 708,313.895431 708,315 C708,316.104569 707.104569,317 706,317 Z M724,317 C722.895431,317 722,316.104569 722,315 C722,313.895431 722.895431,313 724,313 C725.104569,313 726,313.895431 726,315 C726,316.104569 725.104569,317 724,317 Z M741,317 C739.895431,317 739,316.104569 739,315 C739,313.895431 739.895431,313 741,313 C742.104569,313 743,313.895431 743,315 C743,316.104569 742.104569,317 741,317 Z M759,317 C757.895431,317 757,316.104569 757,315 C757,313.895431 757.895431,313 759,313 C760.104569,313 761,313.895431 761,315 C761,316.104569 760.104569,317 759,317 Z M776,317 C774.895431,317 774,316.104569 774,315 C774,313.895431 774.895431,313 776,313 C777.104569,313 778,313.895431 778,315 C778,316.104569 777.104569,317 776,317 Z M794,317 C792.895431,317 792,316.104569 792,315 C792,313.895431 792.895431,313 794,313 C795.104569,313 796,313.895431 796,315 C796,316.104569 795.104569,317 794,317 Z M811,317 C809.895431,317 809,316.104569 809,315 C809,313.895431 809.895431,313 811,313 C812.104569,313 813,313.895431 813,315 C813,316.104569 812.104569,317 811,317 Z M654,334 C652.895431,334 652,333.104569 652,332 C652,330.895431 652.895431,330 654,330 C655.104569,330 656,330.895431 656,332 C656,333.104569 655.104569,334 654,334 Z M671,334 C669.895431,334 669,333.104569 669,332 C669,330.895431 669.895431,330 671,330 C672.104569,330 673,330.895431 673,332 C673,333.104569 672.104569,334 671,334 Z M689,334 C687.895431,334 687,333.104569 687,332 C687,330.895431 687.895431,330 689,330 C690.104569,330 691,330.895431 691,332 C691,333.104569 690.104569,334 689,334 Z M706,334 C704.895431,334 704,333.104569 704,332 C704,330.895431 704.895431,330 706,330 C707.104569,330 708,330.895431 708,332 C708,333.104569 707.104569,334 706,334 Z M724,334 C722.895431,334 722,333.104569 722,332 C722,330.895431 722.895431,330 724,330 C725.104569,330 726,330.895431 726,332 C726,333.104569 725.104569,334 724,334 Z M741,334 C739.895431,334 739,333.104569 739,332 C739,330.895431 739.895431,330 741,330 C742.104569,330 743,330.895431 743,332 C743,333.104569 742.104569,334 741,334 Z M759,334 C757.895431,334 757,333.104569 757,332 C757,330.895431 757.895431,330 759,330 C760.104569,330 761,330.895431 761,332 C761,333.104569 760.104569,334 759,334 Z M776,334 C774.895431,334 774,333.104569 774,332 C774,330.895431 774.895431,330 776,330 C777.104569,330 778,330.895431 778,332 C778,333.104569 777.104569,334 776,334 Z M794,334 C792.895431,334 792,333.104569 792,332 C792,330.895431 792.895431,330 794,330 C795.104569,330 796,330.895431 796,332 C796,333.104569 795.104569,334 794,334 Z M811,334 C809.895431,334 809,333.104569 809,332 C809,330.895431 809.895431,330 811,330 C812.104569,330 813,330.895431 813,332 C813,333.104569 812.104569,334 811,334 Z M654,352 C652.895431,352 652,351.104569 652,350 C652,348.895431 652.895431,348 654,348 C655.104569,348 656,348.895431 656,350 C656,351.104569 655.104569,352 654,352 Z M671,352 C669.895431,352 669,351.104569 669,350 C669,348.895431 669.895431,348 671,348 C672.104569,348 673,348.895431 673,350 C673,351.104569 672.104569,352 671,352 Z M689,352 C687.895431,352 687,351.104569 687,350 C687,348.895431 687.895431,348 689,348 C690.104569,348 691,348.895431 691,350 C691,351.104569 690.104569,352 689,352 Z M706,352 C704.895431,352 704,351.104569 704,350 C704,348.895431 704.895431,348 706,348 C707.104569,348 708,348.895431 708,350 C708,351.104569 707.104569,352 706,352 Z M724,352 C722.895431,352 722,351.104569 722,350 C722,348.895431 722.895431,348 724,348 C725.104569,348 726,348.895431 726,350 C726,351.104569 725.104569,352 724,352 Z M741,352 C739.895431,352 739,351.104569 739,350 C739,348.895431 739.895431,348 741,348 C742.104569,348 743,348.895431 743,350 C743,351.104569 742.104569,352 741,352 Z M759,352 C757.895431,352 757,351.104569 757,350 C757,348.895431 757.895431,348 759,348 C760.104569,348 761,348.895431 761,350 C761,351.104569 760.104569,352 759,352 Z M776,352 C774.895431,352 774,351.104569 774,350 C774,348.895431 774.895431,348 776,348 C777.104569,348 778,348.895431 778,350 C778,351.104569 777.104569,352 776,352 Z M794,352 C792.895431,352 792,351.104569 792,350 C792,348.895431 792.895431,348 794,348 C795.104569,348 796,348.895431 796,350 C796,351.104569 795.104569,352 794,352 Z M811,352 C809.895431,352 809,351.104569 809,350 C809,348.895431 809.895431,348 811,348 C812.104569,348 813,348.895431 813,350 C813,351.104569 812.104569,352 811,352 Z M654,369 C652.895431,369 652,368.104569 652,367 C652,365.895431 652.895431,365 654,365 C655.104569,365 656,365.895431 656,367 C656,368.104569 655.104569,369 654,369 Z M671,369 C669.895431,369 669,368.104569 669,367 C669,365.895431 669.895431,365 671,365 C672.104569,365 673,365.895431 673,367 C673,368.104569 672.104569,369 671,369 Z M689,369 C687.895431,369 687,368.104569 687,367 C687,365.895431 687.895431,365 689,365 C690.104569,365 691,365.895431 691,367 C691,368.104569 690.104569,369 689,369 Z M706,369 C704.895431,369 704,368.104569 704,367 C704,365.895431 704.895431,365 706,365 C707.104569,365 708,365.895431 708,367 C708,368.104569 707.104569,369 706,369 Z M724,369 C722.895431,369 722,368.104569 722,367 C722,365.895431 722.895431,365 724,365 C725.104569,365 726,365.895431 726,367 C726,368.104569 725.104569,369 724,369 Z M741,369 C739.895431,369 739,368.104569 739,367 C739,365.895431 739.895431,365 741,365 C742.104569,365 743,365.895431 743,367 C743,368.104569 742.104569,369 741,369 Z M759,369 C757.895431,369 757,368.104569 757,367 C757,365.895431 757.895431,365 759,365 C760.104569,365 761,365.895431 761,367 C761,368.104569 760.104569,369 759,369 Z M776,369 C774.895431,369 774,368.104569 774,367 C774,365.895431 774.895431,365 776,365 C777.104569,365 778,365.895431 778,367 C778,368.104569 777.104569,369 776,369 Z M794,369 C792.895431,369 792,368.104569 792,367 C792,365.895431 792.895431,365 794,365 C795.104569,365 796,365.895431 796,367 C796,368.104569 795.104569,369 794,369 Z M811,369 C809.895431,369 809,368.104569 809,367 C809,365.895431 809.895431,365 811,365 C812.104569,365 813,365.895431 813,367 C813,368.104569 812.104569,369 811,369 Z" id="ic_dot-texture-copy"></path>
            </g>
        </g>
    </g>
</svg>